<svg xmlns="http://www.w3.org/2000/svg" viewBox="0 0 640 240" fill="none">
  <defs>
    <linearGradient id="beam" x1="110" y1="70" x2="520" y2="190" gradientUnits="userSpaceOnUse"><stop stop-color="#75E3DE" stop-opacity=".32"/><stop offset="1" stop-color="#75E3DE" stop-opacity="0"/></linearGradient>
    <filter id="glow"><feGaussianBlur stdDeviation="4" result="b"/><feMerge><feMergeNode in="b"/><feMergeNode in="SourceGraphic"/></feMerge></filter>
  </defs>
  <rect x="1" y="1" width="638" height="238" rx="18" stroke="#75BDB9" stroke-opacity=".45"/>
  <g stroke="#7DD4CF" stroke-width="2" stroke-linecap="round" stroke-linejoin="round">
    <rect x="46" y="46" width="86" height="108" rx="12"/>
    <circle cx="89" cy="90" r="25"/>
    <circle cx="89" cy="90" r="8"/>
    <path d="M62 46v-16h54v16M68 154l-9 28m57-28 9 28"/>
    <path d="M103 111h18m-65 0h13" opacity=".55"/>
  </g>
  <path d="M126 86L528 38V212L126 117Z" fill="url(#beam)"/>
  <g transform="translate(310 42)" stroke="#8ACDC8" stroke-width="2" stroke-linecap="round" stroke-linejoin="round">
    <path d="M55 120c4-34 20-57 50-68 26-10 55-8 84 2 26 9 52 7 72-6 25-17 53-18 77-2 18 11 31 27 39 49 5 15 16 26 32 31 23 8 44 4 61-11"/>
    <path d="M61 124c17 4 31 14 44 31m73-84c5 18 9 36 11 55m75-70c-3 18-4 36-2 54m97-17c-5 13-8 27-8 41"/>
    <path d="M160 47c-18-25-37-33-57-24m81 25c10-19 26-30 47-31"/>
    <path d="M386 109c19-5 35-2 49 9"/>
  </g>
  <g stroke="#75E3DE" stroke-width="3" filter="url(#glow)">
    <path d="M356 49h-24v24m176-24h24v24M356 189h-24v-24m176 24h24v-24"/>
  </g>
  <g fill="#78C8C3" font-family="Arial, sans-serif" font-size="14" letter-spacing="1.4"><text x="468" y="28">REAL-TIME DETECTION</text><text x="487" y="54">COUGAR · 98.7%</text></g>
  <path d="M476 88l12-6 10 13 14-20 13 17 16-12 11 18 16-8 14 10 13-5" stroke="#62CFC9" stroke-width="2" opacity=".85"/>
</svg>