<svg aria-hidden="true" role="img" viewBox="0 0 640 400" xmlns="http://www.w3.org/2000/svg">
<g fill="#00F4F7" fill-rule="evenodd">
<path d="m476 64-50 21-2-38-43 17v-38l-196 92-19 4 1 187 6 2 39-20 2 41 46-21 1 43 44-17-2 25 7 3 8-8 160-76 24-5 2-7-6-5 1-64 5-8-6-5v-55l6-9-8-5-6 9-14 5zm17 134 3 3-1 64h-1l-2 2-1 5-2 2-13 4 1-74 13-6zm-2-70 5 4v55l-3 2-3 7-14 5 1-66z" fill-opacity=".09"/>
<path d="m475 63-50 21-1-37-42 19-4-40-201 96-12 1 3 187 44-19 1 40 47-20 1 43 44-17-2 24 7 4 6-7 175-83 9 2 4-8-5-4-1-64 6-8-5-5-1-56 6-9-10-4-4 8-14 5zm-120 252-6 2-1 4-2 1h-5l-4 4-15 6h-4l-4-2 13-7 11-4 11-6 3-1 1 2zm-48-28-1 34-2-4-1 4-1-2h-2l-8 4h-2l-4-5h-1l-2-5v-5l2-2h-4v-2l2-2-1-4 4-3 17-8zm-64-14v18l-1-9-8-4zm196 0-1 2-8 7-4 1-5 4-4 1-3 3-7 1-5 3-1 2-4 3h-6l-3 2-5-1-9 8-6 1-2 1-1 2-2 1h-4l-2 2v-4l-2-1 3-2 44-21 13-5 11-6h2l7-4zm-179-8v27l-7-2-3-3h-3l-1 3-1-17 2-2 6-2 2-2zm168 4-9 8-3-1-5 4-7 1-5 5-20 10 2 1-4 2-1-2-3 1 1 2-3 2-1-2-2 1 2 1-3 2-8-5-8 1-17 9-5 5-2 7-5 2h-9l-3-2-1 2-1-37 18-10h5l2 4h3l36-17 2 2-1-2 14-7h11l-3 5-10 6-8 1-6 5h-4l-4 4-32 17-1 4 6 2 22-10 12-3-1-2 3-2 1 2 3-1-1-2 5-3h8l2-2-2-1 4-2 3 2 30-10zm-31-52-5 4-31 14-29 16-2 5 2 2 7 1 1-3 43-20 9-2 1 3-5 2-4 5h-3l-5 4h-3l-10 6-9 3-2 4h-5l-4 5h-3l-4 4-6 2-1 2-20 9-1-13 5-5 1-7 2-2-4 1-4-2 1-13 19-9 3 4h5l56-26zm7-6 1-3 7 2-6 3zm88-14 2 2h1l1 65-3 2-1 4-3 4-6 3-7 1 1-74zm-70 0v13l-2-1-1-2-2 1-4-2-1-4 2-1h3l1 3h3v-3l-2-2zm-26-9v11h-4l-6 4-4 1-1-12 3-2 6 1 2-2zm-25-17 2 3-1 7-2 2-2-3v-7zm-131-8 1 2 2-1v76l-3 2v3l3 2v18l-2-1-4 3-5-3-1-7-2-4-2-21v-6l2-9-2-3-1-8 2-3-1-6 2-13 3-8 1-7 2-2 1-3zm157 0-1 11h-2l-8 4h-3l-1 4-1-18 2-2 3-1 1 2zm-190-14 3 1-1 6 3-1v119l-1-2h-5l-2 1-1 5-1-50 2-2v-4l-2-2 1-70h3zm-7-3 1 74-3 3v2l3 3-1 53-1-5-5-1-4-5-1-6-3-6v-6l-2-4-1-7 1-6-2-9 1-4v-11l-2-7 2-9-1-10 1-6 4-9v-8l4-5 2-5 6-1zm157-3 4 4-3 12h-7l-6 10-15 10 1 5 7-1 1 2 7-6 9 4v5l-8 8-17 11v6h9l-1-2 12-6 1 3 8 1-23 13-8 10-19 9-2-38-1 52-3 1-2 9 6 7-1 11-1-3-4 6-4-1 3-3-9 3-10-14-1-11 2-2-2-1 25-14-14 5-2-3-6 2-3-27 6-10h-5l2-1-2-9 6-18-1-7 3-1 15 7v4l3 1 1 15v-15l3-7-2-2-7 2-11-5 4-2-1-2 9-9 46-21 2 5zm-82 0-2 2-8 3-9 5-6-1 4-3 1-3 5-1 8-5 5 1zm147-9v55l-1-7-2-4 2-2-2-1 1-4-2-2 2-1 1-2h-2l-6 4-2-2-3-1-1-2 2-4h1l2-5 4-3 1 2h2v-2l2-2-1-11 1-1zm-187 2-2 2-21 10-2-3v-2l-3-2 3-2 19-8 4 2zm137-6-1 4v16l1 4-2 2-2-6 1-16-1-3zm120-2 2 2h1v59h-1l-2 2v2l-3 4-12 6-1-67 2-2 10-5zm-67-6 1 9h2l3 5 6-2 2 3-1 6 4-1 5 6-2 2 3 1-11 7 8-2 4 8 4 1v90l-4 5-14 8-9-2 12-11-2-3 2-1-1-3h-13l-1-2-2 3-10 5h-7l2-4-3-1 8-4 3 2 4-3-2-1 7-2 1 2v-3l11-6 1-3-5-3-1 2-1-2-4 2v-13h6l1-3 5-2-2-6-9 2 1 2h-3v-13l12-7v-5l-5 2-5-1-1 4zm-32 0 3 3 2 12-2 8h-4l-4 3h-2l-3 2-1 2v-28l6 1zm-160-1v8h-3l-14 7-10 2 2-5h1l1-3 2-2 5-3h4l4-3zm116-21 1 7-13 8 12-6 2 7-3 6-71 33-1-2-4 5-5-1-5 5-2 102-6-1v-2l-8 4-1-16 4-6-3-3-1-74 10-9-1-2 6-3 6 1 1-3h6l4-6h4l1-3 30-15-34 16-3-3 2-6 53-30 12-4zm33-5 1 8 3 1-2 1h-3zm-41-15v2l2 3-3 2-101 48-2-5 1-2 5-4h-4l-1-2v-5l5-5 4-1 5-4 13-5 6-5 7-3h3l18-9 2-2h2l2-2 12-2h5l2 2h2l3-2 7 1 3-2z" fill-opacity=".16"/>
<path d="m359 302h-3l-22 10-2 2v3l2 2h3l11-5 2-2 10-4z" fill-opacity=".3"/>
<path d="m308 256-5 4v3l2 2h1l2 4 1-5h1v-6z" fill-opacity=".3"/>
<path d="m436 251-2-2-8 4h-3l-6 4-20 8-63 29-2 2v2l3 2 5-3h2l13-7 80-36z" fill-opacity=".3"/>
<path d="m436 231-2-2-11 4-35 17-35 15-4 3-16 7-1 3 6 1 28-14 54-24 14-7z" fill-opacity=".3"/>
<path d="m199 223v3l3 1 2-2v-2l-2-2z" fill-opacity=".3"/>
<path d="m436 210-1-2h-3l-16 8-16 6-4 3-20 8-24 12-9 3-2 2-8 3-1 2 1 3h3l55-26 9-3 13-7 13-5 8-4z" fill-opacity=".3"/>
<path d="m435 187h-4l-12 5-9 5-9 3-23 11-1-2-3 1 1 2-9 4-2 2-30 13-2 2v2l3 2 35-17 22-9 22-11 9-3 12-6z" fill-opacity=".3"/>
<path d="m304 180 1 4 5-1v-4l-4-1z" fill-opacity=".3"/>
<path d="m410 172-7 3h-3l-5 4-13 6-2-2-1 3-4 2-7 1-2 3-32 14-2 2 1 4h3l4-3 11-4 11-6 18-7 4-3 16-6 10-5 1-4z" fill-opacity=".3"/>
<path d="m245 155-3 1v5l2 1 1 13 1-14 1-3 2-2z" fill-opacity=".3"/>
<path d="m401 149h-5l-3 3h-4l-3 3-4 2-2-2-1 3-10 5h-3l-4 3-11 4-4 3-13 5-2 2 1 4 5-1 40-18 13-7 11-4z" fill-opacity=".3"/>
<path d="m203 139-5 1 1 4 2 2 1 5v-5l2-2v-2l2-2h-2z" fill-opacity=".3"/>
<path d="m476 64-51 20-1-36-43 17-1-39-194 92-19 4v186l45-17 1 40 46-22 1 43 46-15-3 24 6 4 174-87 18-2-2-77 4-8-5-4 5-65-8-3-13 13 8-4 7 4v53l-6 11-14 7zm16 133 2 2h1l2 5-1 42 1 14-1 4-4 4v3l-1 2-12 6-3-1-1-2 1-40-1-29 3-4 4-1 2-2zm-26-19 1 4 1 1-2 24zm-14-73 1 45 9 33 2 46 3 1-2 25-6 7 9-1-6 14-39 24-99 44-12-2-4-5 3-5-4-8-1 9-12 3-10-1-8-6-4-13 1-13 18-10-6 3-9-3-5-31 9-6h-5l1-4-4-1-1-28 4-7-3-4 3-31 6-8h5l-5-2 9-9 41-24 41-14 9 3 1-11 14-4 2 4 12-5 9 2 3-6 2 30 1-33 17-5zm-56-27v22l-135 63-1 142-14 1 1-65-3-6-3 9 3 3v24l-4 3 3-1v34l-1-3-11 1-5-5-3-17 12-7h-9l-4-7-3-31 1-55 5-25 35-26 77-39 34-6 9 5-4 4h4l1 9 1-26zm-27-18 4 7-5 7-154 73-2 134-9 6-2-12-1 13-10 3-7-2-6-21-3-88 7-45h4l8-9 37-19 4 2 2 12 1-13 8-9 94-44 12-1v8l6 2 3-5z" fill-opacity=".3"/>
<path d="m358 302-23 10-2 5h4l11-6h2l8-4z" fill-opacity=".52"/>
<path d="m498 263-2 3-3 1-1 3 1 5 2 1h5l2-1 1-2v-5l-2-2-3-1z" fill-opacity=".52"/>
<path d="m304 260 1 4 5-1-1-5h-3z" fill-opacity=".52"/>
<path d="m435 250h-4l-13 7-20 8-65 30v4l6-1 24-12 11-4 60-28z" fill-opacity=".52"/>
<path d="m434 229-99 45-3 4 3 2 11-6 15-6 26-13 39-18h2l6-3z" fill-opacity=".52"/>
<path d="m434 208-15 6-85 39-2 3 3 2 3-2h2l13-7 57-25 11-6 14-6z" fill-opacity=".52"/>
<path d="m498 187-5 4-2 6h4l2 3 3-1 3-3v-4l-1-2-3-1z" fill-opacity=".52"/>
<path d="m435 187h-3l-65 29-15 8-13 5-6 3v4h3l29-14 46-21 22-9 2-2z" fill-opacity=".52"/>
<path d="m410 173-7 2-11 6-20 8-37 17-3 4 3 2 13-7 53-23 8-4 2-2z" fill-opacity=".52"/>
<path d="m400 150h-3l-20 10-42 18-3 4 3 2 7-4 24-10 22-11 11-4 2-2z" fill-opacity=".52"/>
<path d="m496 119-2 1-2 3 1 6 5 3 1-3h2l2-2v-4l-2-3-2-1z" fill-opacity=".52"/>
<path d="m475 64-51 21-3-37-207 99v184l45-24-29 12-12-5 2-162 185-90 17 5v21l-159 74-2 191 36-16-20 7-11-14 8-30-9-15 5-112 59-40 86-36 9 6 1-10 36-11 10 59 1-18-3 155-156 74-7-9-2 19 173-82z" fill-opacity=".52"/>
<path d="m381 27-202 95-14 3 3 8 1 177 30-17-16 7-8-2-2-4-3-140 4-22 18-14 41-19 3 5 1-6 6-5 124-57 14 3z" fill-opacity=".52"/>
<path d="m359 303h-3l-16 8h-2l-4 2-1 4h3l11-6h2l10-5z" fill-opacity=".86"/>
<path d="m434 250h-2l-20 9-11 6-57 25-10 5-1 4h3l2-2 35-15 46-21 11-6h2l2-1z" fill-opacity=".86"/>
<path d="m435 230-6 1-9 5-39 17-39 19h-2l-6 3-1 4h3l2-1 2-3 2-1 2 1 5-2 2-3 4-2 2 1 66-30 12-6z" fill-opacity=".86"/>
<path d="m435 209h-4l-98 45 2 4 4-3 3-1v-1l3-2 2 1 29-14 57-25 2-2z" fill-opacity=".86"/>
<path d="m434 187-4 1-96 44-1 4 9-3 2-3 2 1 7-5 2 1 9-4 2-2 51-22 9-5h2l6-3z" fill-opacity=".86"/>
<path d="m410 174-6 1-20 10-20 8-22 11h-2l-6 3-1 4h3l11-6h2l9-5 2-2 2 1 27-13 9-3 12-6z" fill-opacity=".86"/>
<path d="m400 150h-2l-49 23-9 4h-2l-4 2-1 4h3l64-29z" fill-opacity=".86"/>
<path d="m294 148-32 15 1 144v-127l4-13 3-1v-2l4-4 11-7 6-2z" fill-opacity=".86"/>
<path d="m249 131-36 17 1 141v-129l1-5 5-8 22-11z" fill-opacity=".86"/>
</g>
</svg>