<svg xmlns="http://www.w3.org/2000/svg" viewBox="0 0 640 400" fill="none" stroke="#00F4F7" stroke-width="4" stroke-linecap="round" stroke-linejoin="round">
  <g transform="translate(320 200)">
    <ellipse rx="150" ry="66"/>
    <ellipse rx="96" ry="66"/>
    <ellipse rx="56" ry="66"/>
    <circle r="34"/>
    <circle r="13" fill="#00F4F7" stroke="none"/>
    <path d="M-172 0H172M0-118V118M-131-79C-80-42-38-30 0-30S80-42 131-79M-131 79C-80 42-38 30 0 30S80 42 131 79"/>
    <circle cx="-172" r="11"/><circle cx="172" r="11"/><circle cy="-118" r="11"/><circle cy="118" r="11"/>
    <circle cx="-131" cy="-79" r="8"/><circle cx="131" cy="-79" r="8"/><circle cx="-131" cy="79" r="8"/><circle cx="131" cy="79" r="8"/>
  </g>
</svg>
