<svg aria-hidden="true" role="img" viewBox="0 0 640 400" xmlns="http://www.w3.org/2000/svg">
<g fill="#00F4F7" fill-rule="evenodd">
<path d="m318 15-2 37-38 8-58 24-36 35-28 55-18 5-13 18-20-1-2 6 24 2 10 15 17 7 19 47 43 50 58 24 44 8-3 26 8 3 1-30 50-9 51-22 45-53 17-44 17-7 11-16 21 2 2-7-21-1-13-17-19-5-26-53-38-38-40-18-58-15 3-32zm103 281-1 19-3 2-1 4-4 4-23 12-22 8-23 5-11-1 6-7 3-6 1-6 2-1h5l13-3 17-6 19-10 13-9 6-6zm-199-1 12 10 6 4 5 2 5 4 13 6 18 6 16 3 2 2v5l5 8 2 5h-9l-16-3-19-6-15-6-13-7-5-4-3-1-2-2v-3l-1-2-3-2zm193-1-1 2-9 8-16 10-16 7-24 7-7-1-1-5-2-4-4-4-7-4h-4l-2-2 2-7v-5h13l24-3 4-2 10-1 10-3 6-3h3l6-3 7 8 3 2h2zm-190 0 2-2 7-3 7-8 9 3 3 2 13 4 10 1 5 2 12 2 21 1 4 2-2 2v4l2 2v2l-2 2-5 1-4 2-6 7-2 6-2 2h-4l-20-5-13-5-22-12-10-8zm244-80 5 5 4 1 2 2 5 2-3 15-4 11-2 2-9 19-16 21-20 19-5 3-3-1 1-9-1-7 3-4 5-1 4-2 7-7 3-6 1-5v-5l-2-5 1-11 14-17 6-11 1-5zm-312 9h2l15-8v3l6 13 8 11 8 8 1 8-1 18 3 7 5 6 12 5 2 9-1 11-4-1-10-8-15-15-14-19-6-10-8-18-4-14zm326-17 5 1-1 4-4-2zm-128-7-3 1v3l-1 1v4l-1 2-4 1-3 4-1 3-6 3-1 5-5 1-1-2-4-3h-2v4l2-1 3 2h-7l1-13 1 2h2l1 2 7 1v-4l2-1 5-8 5-6-9-1zm-71 0h19l-5 1-1 4 3 4 3 2 4 1 1 3h5l2 2 1 4h2l1-4v12h-5l-3-2 1-2h-3l-1-1-5 1-2-1 2-3-4-5-4-1v-3l-2-3-3-2-1-4-2-2zm-132-11v5h-3l-3 3v9h1v4l-7-6v-3l-2-4 4-3 2-4h6zm334 1 2 1v-2l2-2h3l3 3 7 11-2 1v3l-5 2v-2l1-1v-2l-2-2 1-4-3-1-2-2h-3l-1 2-3-2zm-164-26 1 6h2l7-3 2 4 6 3 3 3-1 4 1 2h3l3 3v5l9 6h-20l6-1-1-3h-1l-1-4-2 1-1-3-5-4-6-2v-2h-4l-1 5zm-3 0v19l-1-3h-4l-1 2h-2l-2 2-7 1 1 5h-1l-1 3-3 3 8 1h-22l4-1v-4h2l2-4v-3l3-2 4 1v-2l1-1-1-4 3-3h2l3-3v-2l2-1 1-2 3 1 1-1 4 1zm-139-29v3l3 7 6 7-8 11-7 15v3l-3 4-6-5-7-3v-3l3-9 7-16 9-14zm282-2 9 13 9 19v3l2 3v3l1 1-1 3-4 1-3 3-7 2-3-11-8-15-5-6 6-7zm-19-5 1-2h2l3 3-3 2zm-241-3-7 6-1 7 3 2-3 2-2-2-1-6 2-1-1-4 1-2 4-3zm216-30 2-2h2l8 6 10 9 1 2-2 2h-6l-7 3-3 3-5 1zm-196-1 1 11-2 15-9-7-3-1h-4l-5-2 15-14zm116-34 7-1 7 1 22 6 26 12 11 7 1 6 3 2-1 28-14-7-21-7-22-5-14-2h-11l-8-2 1-4 6-3h2l7-8 2-5v-10zm-35 0-4 6v13l3 6 2 1 2 4 11 5-1 4-17 1-20 3-24 6-30 11-1-17 1-9 3-3v-4l2-2 11-7 26-12 22-6 7-1z" fill-opacity=".09"/>
<path d="m258 318 6 3 18 6 3-1-6-1-12-4-8-4z" fill-opacity=".16"/>
<path d="m395 311-21 10-12 4h-3l-3 2 6-1 15-5 13-6z" fill-opacity=".16"/>
<path d="m481 196 2 1-3 2 4 1-1 3 6 3 4-2v-2l-1-1v-5l-4-1h-6z" fill-opacity=".16"/>
<path d="m354 60 7 1 4 2h3l1 1 2-1-14-4z" fill-opacity=".16"/>
<path d="m319 15-2 37-96 32-38 37-19 36 15-25 10 19-18 34-13-9 4-17-6 16-17 4-13 18-22 1 1 6 20-2 29 23 28 58-27-57 17-13 24 37 3 32 19 13-2 20-28-24 29 32 55 23 45 8-2 26 7 4 3-31 47-8 52-22 28-31-29 21v-18l19-13 3-31 24-38 16 15-26 55 28-58 16-6 10-15 22 1 3-7-22-1-13-17-17-4-28-55-38-37-47-19 40 21 1 34-91-23 16-14v-25h13l-30-8 4-31zm-5 304 5-2v9l-3 1-1 3-3 1 4 1v2l2 2h4l3-1v-2l3-3-2-1v-1l-2-2-3-1 2-8 6 4 2 4 3 3v5l-1 3-3 3-3 1v1l-5 1-2-2-1 2-4-1-3-3h-2l-2-2-2-5 2-5zm107-24v19l-4 4-1 4-10 7-21 10-20 7-19 4-10 1-5-1 8-9 3-10 2-2 5-1h-6l-2-2-2-7-5-5-5-3-5-1-2-3 2-2-1-6 1-3 35-3 28-7 13-5 9 9h2l4 3v2l-10 10zm-200-1 8 6-4-5 1-3 6-2 9-9 10 3 3 2 10 2 3 2 21 4 28 2 2 2-1 7 2 3-2 2-9 3-5 5-5 10-6 1 6 1 2 8 7 13-18-2-28-8-5-3-5-1-24-13-3-3v-3l-4-4zm200-38v7l-4-1-1 2-1 9h3l2 2h1l2 3 1-3h3l1-2-1-9-5-1 2-5 3-1 2 1 7 7 1 4v3l-1 1-1 5h-1l-6 5h-2l-2 2h-3l-8-3-5-4 1-2-2-3v-2l6-3-2-1v-2l2-1-1-2 6-5zm-201 0 5 4h3l2 2-1 6 4 1v4l-2 2 1 3-4 4-7 2h-5l-3-1-5-4-5-7v-4l8-10 4-1 2 1 1 4 2 1-6 3v7l2 2h1l2 3 3-4 5-3-1-2-2-1v-6l-4 1zm138-57 1 3-2 2v3l-3 5-2 2-2-1v3l-6 6-5 3 3-1 1 3-2 2 1 3h-2l-1 2h-7l-1 3h-4l-1-1-4 1-1-7 2-2-2-1 1-18 3 1 2-2 4-2 3-5-1-2zm-75 0h26v5l5 5 2 1 3-1v19l-3 1 4 1-1 8h-2l-1-2h-5l-2-1-2-3h-2l-2-3-5-2-2-3 2-1 4 1-6-3-6-5 2-3h-2l-5-5-3-7zm207-16 5 1 7 6 1 3 2 2h1l2 6-5 7-5 5-4 2h-3l-11-3-3-3v-3l-2-2v-3l3-3-1-2 2-1-1-2 3-5 2-2 2 1 2-1 1-2zm-344 0h5l8 3 1 1 2 7-4 2-6-1-2 1-1 2v5l3 1 1 5 1-6h4l-1-5 3-1 2-2 4 2-2 2 2 1-3 6 3 2-2 1-3 4h-3l-4 2-10-3-6-5-3-5-1-3 1-4 2-1 1-3 5-3 1-3zm176-23 10-2 3 2-4 1-1-1-3 1h3l7 2 6 6 3 4 2 5 5 4 1 6 5 4-1 5-25-1v-5l-2-2-5-3-4 1zm-2 1-1 26-1-2h-2l-6 4-2 3-1 5-25-1-1-3-1 4-4-3h2l3-6 1 2h2l3-3v-3l5-5 3-1 5-8v-4l2-2 4-1 2-2-2-1 2-2zm0-5-1 3-6-1 4-2 1-3zm142-24 3 3 7 11 8 17v3l2 3v3l2 3-2 2-14 7-4-14-6-11-5-6-1-3 6-7 2-5v-4zm-249-2 1 3 2 2-2 3-5-3zm229-12 5 3 4 5v3l3 4-2 5-6 7-3-1-3 2-7-1-4-3v-1l-4-5 1-3h2l1-2 1 3 2 1-2 2h4v2l2 1h4l-1-2 3-1-1-3 1-4h-2l-1-2h-4l-2 5-6-5 6-8 6-2zm-255 13 3-3v-2l6-5 1-2 7-1 4 1 2 2v2l4 5-6 5-2-4h-4l-4 3 2 3-1 3 4 3 4-2 2-3 7 4-6 2-5 4-2-3-8 2-6-6zm232-39h3l13 10 6 9h-6l-4 1-8 5-5 2zm-200 0 4 1-2 26-10-7-11-3 11-11zm111-30 1 2-1 2 5 5-3 2 2 4-6 6-7-1 1-4 3-1v-7l-4-2-1-2-1 2-3 1-1 5 2 4 2 1v6l-5-1-7-7v-8l1-2 3-1v-3l2-2h7l1 2 1-4h2zm-27-4v2l-4 6v11l3 6 5 6 11 5-1 4-14 2h-9l-18 3-29 8-21 9-2-2v-24l4-4v-4l3-3 17-10 19-8 21-6z" fill-opacity=".16"/>
<path d="m321 322-2 5-2 1v5l3 3 6-5-4-4z" fill-opacity=".3"/>
<path d="m418 266-1 4 1 2 2 1h5l1-7-4-1z" fill-opacity=".3"/>
<path d="m215 267 1 6h5l2-1 1-3-2-1v-3z" fill-opacity=".3"/>
<path d="m484 198 1 4 2 1h3l2-1-1-5z" fill-opacity=".3"/>
<path d="m150 197-1 4 2 2h3l2-1 1-3-2-2-2-1z" fill-opacity=".3"/>
<path d="m433 135 5 1 3-2-1-4-5 1v2z" fill-opacity=".3"/>
<path d="m200 131v4l5 1 3-2-2-1-1-3z" fill-opacity=".3"/>
<path d="m412 84 2 7 4 3 1-2h4l-3-8z" fill-opacity=".3"/>
<path d="m321 68-3 1v7h1l2 5 1-5h2l-1-6z" fill-opacity=".3"/>
<path d="m318 16v36l-17 5 2 27 17 9-3 5-93 22 4-36-8 1 1 35-26-9-16 18 10 23-18 33-15-10-10 2-20 20-22 4 22 1 11 16 18 8 19-12 22 36 4 33 18 11-2 28h7l-3-27 6 2 14-16 78 16 1 12-21 21 12 20-10 2 19 3-4 24 6 5 1-29 25-5-17-1 12-21-19-18 2-15 76-14 20 14-6 29 9-1 6-11-7 2 1-21 17-10 4-33 23-37 18 16 29-27 19 2 3-7h-22l-20-20-27 7-17-34 10-22-18-19-25 11-1-6-2 7-35-14-57-9 16-16-1-26-17-5 4-33zm-7 299h3l2-2 4 1 1 3 1-4h2l3 2 4 8 6 7-1 7-3 4h-3l-3 4h-5l-2-2-1 2h-4l-2-1-2-3h-2l-2-2h-1l-1-5-3-3v-2l2-2 2 1 1-3 3-2 2-3v-2l-3-1zm113-62 6 3 2 2 1 3h2l2 2 2-1 1 3 2 2-1 5-2 3v3l-2 2-3 1-2 3-4 2h-6l-4 1-3-1-2-2-4-1-2-2-1-6-3-3 6-5v-3l2-4 6-6zm-214 0 3 2h3l4-2 6 2 1 3h1l2 2 1 5 1 2 2 1 2 4-4 5 3 2-1 2-7 5-4 1-11-1-11-11v-3l-2-2 1-4h2l7-6 1-4-3-1zm192-6-6 6h-2l-3 2-6 7h-3l-2 2-2-1-2 2h-6l1 2-3 2h-4l-1 2h-2l2 1-3 1-1-1h-2l-4 2 1 2-3 1-1-2-3 1-2 2-1-2-3 2-3-2h-3l-2 1-1 2-8-1-2 1-1-16 2-1 1-5-2-2 3-1 1 1 30-4 16-5 8-5h4l4-2 1-2h3v2h2zm24-46 2-2 12 1-9 3-1-1zm11 6 1 6-3 4h-3l1 4-3 3-1 5h-2l-4 2v3l-2 3-2-1-3 2-6 6-2 1-1 2-2 1-10-10v-2l-3-1 3-1 13-14 6-15 2 1v-2l-2-1 1-5 3 1 1 2 6 1 1 2h2l2 2h5zm-40-8-3 3 2 3v2l-2 4-4 4-1 4-2 2-4 2-2 4h-3l2 4-8 2-7 6-5 1-9 5-11 2-14-1 12-3 7-3 12-9 8-10h2l-2-1 3-5 2-6 1-7 2-4zm-122-1 8 1h30l-1 4 8 4v31l-2 2-2-1-4 1-4-1-6-3-3-3-3-1-5-5v-4l-4-1-3-4 1-2-2-1v-2l-4-1 1-3-5-6zm-31 1h25v4l2 4v4l4 7-1 4 4 1 4 6 5 5 7 5 12 5 10 2-9 1-2 1-7-2-2-2-10-1v-1l-4-3h-4l-2-1-3-3-6-3-5-4h1l1-2h-6v-3l-4-4v-2l-4-3-3-5-1-8zm-46 1 15-1 6 5 1-2h2l1-4 4 2 3 18 13 13v2l6 2-3 1v2l-5 6 6-5h2l2-3 4 4 12 4 8 5h6l21 5 17 1-2 2 1 5 2 1-1 16-11-1-1-2-4-1h-14l-1-2-6-1-7-5h-6l-2-2 1-2-1 2-2-2-5-1 1-2h-4l-3-5h-5l-13-10-17-9-1-2 2-4-2-2-1 3-3 1-2-2 2-6-3-6h2l2-4 4-1 2-4-3-3-1 6-3 2h-4l-4-4h-3l-1-9zm284-19 5-1 11 1 2 2-1 2 2 3 4 4h3l2 2v5l-1 1-1 7-6 4-2 4h-2l-5 3-9-1-5-4h-2l-2-6-2-3v-2l3-4v-3l2-2v-5l3-3-1-2zm-336-1h9l7 6 2 9 3 2 1 6h1l1 3-1 1v3l-2 2-4 1-2 2-4 2h-11l-3-3h-2l-6-6v-2l-3-4-1-4v-4l1-2h4l1-2h3v-2l2-1-1-5h2zm177-29 5 2 8-1 5 4-5 2 7 3 1 3-2 1 1 2 3 1 2 6 8 8v3l3 4v-3l2-2 1 3h2l1-3 2 2-2 11-6-1-3 2 11 1-4 15h-2l-1 3-8-2 3 2-1 2h2l1-2 2 2-2 5-6 3-1-3-2 1 2 1-1 6-7 5-14 3h-5l-2-2 1-32 5-1 4-6 23-2-25-1 1-3-9-5v-27l2-2-2-1v-5zm-3 2-1 36h-3l-3 2-2 6-37-1 1-5v-8l3 1v4h2l1-3 2 4v-2l2-3 7-6v-2l6-6v-4l2-1-1-4 5-4h-3l-4 2-3-1 2-2 5-2 2 1 3-2h7l5-2zm76 2 2-2 11-5 2 2h2l4 5 5 2 1 13 1-13 2 1 1 4 3 4 3 2 3 6v3l-1 1 1 4-2 1 4 8-1 4 3 1h-8v-3l-2-1h-3l-2 3h-5l-1-2-2 1 3 1-2 2-3-1v-6l-3-12 2-1 1-4h-3l-1 2-5-9zm-151 0-10 11-6 11-3-1v2l2-1v3l-1 3-3-1v2l3 1v3l-2 7-2-7h-2v3l2 1-1 4-2-2h-3l-3-3h-3v4l3-1 1 2-2 2-7-2-3-5v-5l5-4h3-2l-4-3 1-2 4-2-1-6 2-2 4 1 2-3 2 1v-4l-1-2 2-4h4v-3l2-2h5l2-3 4 3h2zm59-8-3 2-4 1-8 5-13 14h-2l2 2-2 2-4 10-2 14-24-1 3-1-2-4 2-3v-3l2-2v-4l10-12 8-2-1-2h-2l-2-2 6-1 4-3 4-1 9-7h2l1-3 2-1 5 3-1-3 3-1 1 2zm-3-3 3-1 1 2h6l-4 2h-3l-1-2zm4-4 2-1 1-2 3-1 1 2h2l4 7-7-1v-3zm17 4 7-3-4-1 3-2h2l3-3 6 2 3 2 1 2-4 1 1 2h8l4 1 6 3 2 3 4 2 5 5 4 2 6-1-1 4 1 2 3 3v2l9 11 2 7v7l4 1h-25v-6l-2-9-5-11 1-3-2 1-11-12-9-6-10-4zm119-30 6 3v2l10 12-1 7-6 7-9 4h-7l-4-1-2-2v-2l-3 1-3-3 3-2-2-4 1-4 2-1v-3l3-4 1-6h3l1-3zm-242 0h5l4 1 4 5v3l3 4v4l3 2v3l1 1-1 3h-2l2 1v2l-5 1-4 4-3 1h-6l-4-3-3 1-3-4-5-4v-11l4-1 1-3 2-1 2-4-2-1 2-2zm120 2v3h-1l-1 4 3 4-2 2-6 1h-10l-19 4-11 4-14 7-9 7-3-1-2 2-13-7 4-1v-4l2-4h6l8-2v-2l4-3 1-2 3-1 4-4 1-3 6-1 6-4 8-1 10-4 2 1 4-1 11 1 2 1 4 5zm3-1 3-4 4-3 6 1 13-1 9 2 2 2 6 1 3 3 6 2 4 5 5 2h9l3 3 4 1-1 2 4 4v3l6 5-1 2 2 1-2 2-12 6-12-9-14-7-11-4-19-4-16-1-1-4 2-1v-3l2-1-1-3zm-3-60 1 2h9l3 6v2l3 4 2 1v6l-1 3-3 1-2 2 1 2-8 4-3-1-1-4-2 5-3-2h-3l-7-7-2-4 1-6 2-2 4-2 1-5h1l3-4z" fill-opacity=".3"/>
<path d="m318 328v5l4 1 2-2-1-4z" fill-opacity=".52"/>
<path d="m419 318v3l3 1 2-2v-3z" fill-opacity=".52"/>
<path d="m217 317v3l3 2 2-1-1-4z" fill-opacity=".52"/>
<path d="m420 266-1 2v3l2 2h3l2-2-1-4-2-1z" fill-opacity=".52"/>
<path d="m216 267-1 4 2 2h3l2-2-1-4-2-1z" fill-opacity=".52"/>
<path d="m532 198 1 5h2l2-2-1-3z" fill-opacity=".52"/>
<path d="m487 197-2 3 1 2 2 1 3-1 1-3-2-2z" fill-opacity=".52"/>
<path d="m150 202 3 1 3-4-2-2-4 1z" fill-opacity=".52"/>
<path d="m420 195-1 2 1 4h6l1-4-2-2z" fill-opacity=".52"/>
<path d="m216 195-2 2 1 4 2 1h3l2-2-1-5z" fill-opacity=".52"/>
<path d="m321 176-2 16-2-1-3 3 1 2-6 2 6 1v3l5 2 1 14 1-15 4-1 1-4 5-1-5-1v-3l-6-2z" fill-opacity=".52"/>
<path d="m397 153-4 1-3 3 6 1 7 11v4l-2 1 4 9v14l-6 1h4l4 2-2 11-7 9-2 5-5 2-4 5-3-2 3 3-4 1-12 10h-3l-2 2-7 1-9 4 20-5 17-9h5v2h3l-1-3-3-1 15-14 6-11 2-7v-17l-6-16-8-10z" fill-opacity=".52"/>
<path d="m376 142 1 2 6 3 3 3 1 3 3-3z" fill-opacity=".52"/>
<path d="m434 135 2-1h5v-3l-2-1-3 1v2z" fill-opacity=".52"/>
<path d="m200 131 1 4 7-1-3-1-1-3z" fill-opacity=".52"/>
<path d="m258 109-11 3-3 2h-2l-2 2 5-2h3z" fill-opacity=".52"/>
<path d="m415 85 1 5h4v-3l-1-2z" fill-opacity=".52"/>
<path d="m225 85-4 1v4l3 1 2-2z" fill-opacity=".52"/>
<path d="m318 70v5l3 1 2-1 1-3-2-2z" fill-opacity=".52"/>
<path d="m116 201 31 21 26-12 24 41 31 1 11 28-29 8-10-30 8 32 33-10 82 25-1-10 82-16 10-28 24 6 5 16-13 16-26-5 27 7 13-15-6-21 30-45 27 12 18-25-20-20-24 11-18-36 6-31-27-8-15 32 36 13 9 27-15 14 14 1-7 29-18 20-30-1-15 31-66 11-2-35 20-3-19-7 30-10 30-38-11-1-15-37-35-22v-44l20-25-20-17-2-33v34l-19 16 20 25-1 52-32 12-27 41 30 38 30 15-46-6-31-24-7-22 15-2-17-1 14-42-22 38 21 47 73 16-1 37-68-16-14-28-28 2-20-24-1-66 38-15 4-25-40-5-5 30-2-19 14-13 16 4 6 26-26 5-21 39-24-10zm371-23h3l7 2 6 3 3 3-3 1v2l3-2 3 3v2l2 2v7l-1 4-3 4-1 3-4 4-8 4h-7l-8-1-2-1-6-5v-4l-3-3v-8l2-2 2 6v-2l3-3v-2l2-2v-5l-4-1 1-2 8-5zm-337 0 7 1 4 3 4 1 1 4-2-1v6l4 5 1 4 4 3-4 8-4 4-6 3-6 1h-5l-6-2-5-7-4-1-1-4-2-2v-11l3-5 6-6 5-1zm162-30h6l2 2 1 16v-16l2-2h6l2 2h5l7 3 10 8-1 3-6-5v6l6 12 7 8 2-2-1-5 3-4 2 4-2 1 5 7-1 7 2 3-3 2 3 1-4 15-4 4-3 7-9 9-15 8h-12l-2-8v7l-2 2-10-1-4-3h-4l-9-6-10-11-8-17v-7l2-1-3-1v-10l4-5-1-2 4-6 4 1-2 5 1 6h2l1-4 6-3 4-6 2-9-1-3-14 12 1-6 16-13zm122-35h9l10 6-3 1 1 3h4l2 2v3l2 2-1 7-2 2-1 4-5 5-3-1-1 3-7 2h-4l-9-4-5-6v-3l-2-2v-4l3-4 3 1 3-6v-2l-4 1-1-2 2-2 3-1 2-3zm-119-59h7l8 2 2 2-1 2 2 5 6 2 1 5-4 11-6 5-4 2h-4l-2-2-1 2-6-1-4-3-3-1-4-7-1-8 2-6 6-7z" fill-opacity=".52"/>
<path d="m318 376 1 5 4-1v-4z" fill-opacity=".86"/>
<path d="m336 343-3 1-4 4-3 1h-10l-6-1 4 2 7 1 1-1h4l5-2 3-3h1z" fill-opacity=".86"/>
<path d="m318 329 1 4h4v-5z" fill-opacity=".86"/>
<path d="m334 315-1 1 2 1-1 3h-2l3 3 3-1 2 3-3-7z" fill-opacity=".86"/>
<path d="m318 300v4l3 1 2-2v-3z" fill-opacity=".86"/>
<path d="m207 289 7 3h10l3-2h-4l-1 1h-7l-6-3z" fill-opacity=".86"/>
<path d="m420 267v5h5l-1-5z" fill-opacity=".86"/>
<path d="m216 268v4h5l-1-5z" fill-opacity=".86"/>
<path d="m433 251-8-3h-7l-4 1-6 3-5 5-3 6-1 5 1 11h-2l-4 3 8-3-1-13 1-5 6-7 4-2 2-2 13 1 4 2h3z" fill-opacity=".86"/>
<path d="m319 262 4-1v-4l-2-9-1 8-2 1z" fill-opacity=".86"/>
<path d="m206 252-1 2 4-1 3-2 12-1 4 1 4 4 3 1v4l-3-2v3l3 4 2-1 2 2 1 6-1 7 2 1h3l-3-1-1-2 2-5-1-9-3-6-5-5-6-3-5-1h-6l-4 1z" fill-opacity=".86"/>
<path d="m359 227-10 8h-1l-2 3 3-1 4-3z" fill-opacity=".86"/>
<path d="m169 214-7 5-7 2h-7l-4-2-2 1 6 2h8l8-3 3-2z" fill-opacity=".86"/>
<path d="m486 198 1 4h4l-1-5z" fill-opacity=".86"/>
<path d="m150 198 1 4 4-1v-3l-2-1z" fill-opacity=".86"/>
<path d="m421 195-2 3 1 3 3 1 3-1-1-6z" fill-opacity=".86"/>
<path d="m215 196 1 5h5l1-4-2-2z" fill-opacity=".86"/>
<path d="m321 190-2 4-2 1-1 3 1 3 4 2 5-5-1-3-4-2z" fill-opacity=".86"/>
<path d="m227 187v15l3 10 3 6 13 14 7 5 6 3-3-4-3-1v-2l-2 1-12-11-9-17v-4l-2-2 1-13z" fill-opacity=".86"/>
<path d="m413 183-2 2 2 15-2 3v5l-4 5-1 5-2 3 2-1v-1l2-2 4-8 2-8v-12l-1-1z" fill-opacity=".86"/>
<path d="m481 179-5 2-7 7-4 10-4 1 5 1 1 5v-5l3-8 1 4h3l2-3v-5l-3 2-2-2 3-4z" fill-opacity=".86"/>
<path d="m160 179 1 2h2l3 2 2 6h-3v3l1 2 4 4 3-2 1 8-1 1v3l-2 1 1 2 2-2v-3l1-1 1-6 5-1-6-1v-4l-4-7-3-3h-2l-1-2z" fill-opacity=".86"/>
<path d="m294 164h-2l-5 4-4 7-1 5 3-2 4-1 5-6 1-4z" fill-opacity=".86"/>
<path d="m349 162-1 3 5 6-2 2 3 1v2l3 1v1l3 2-1-6-2-4-5-6z" fill-opacity=".86"/>
<path d="m429 152 6 2h6l5-3-7 2h-3l-1-1z" fill-opacity=".86"/>
<path d="m195 151 1 2 4 1h6l4-2-9 1-4-2z" fill-opacity=".86"/>
<path d="m418 139-3 5h5l2 2v1l4 3-3-5-2-1-1-5z" fill-opacity=".86"/>
<path d="m223 138h-2l-2 2 1 3-7 8 12-7v-2z" fill-opacity=".86"/>
<path d="m321 137-2 8-16 3-21 14-10 17-3 16 4 19 7 12 9 9 13 7 19 4 11-3h-11l-1-4-1 5-11-1-21-12-12-17-4-15v-9l4-13 15-19 18-10h12l1 4 2-6 10 2 12 5 9 7 13 20 3 11v12l-10 22 2-1 9-21v-15l-3-11-6-11-11-11-13-7-15-3z" fill-opacity=".86"/>
<path d="m318 120v3l3 2 2-1 1-3-2-2z" fill-opacity=".86"/>
<path d="m213 115 4 8-2-1 1 5 3 2 1-3 2 3 2 7v-6l-3-8-3-4z" fill-opacity=".86"/>
<path d="m432 113-5 2-7 7-2 5 3-1v-2l2-4z" fill-opacity=".86"/>
<path d="m332 56 3 4-2 1 1 4h2l1-2 2 3 2 9v-6l-1-4-2-4z" fill-opacity=".86"/>
<path d="m318 19v4h5v-4z" fill-opacity=".86"/>
</g>
</svg>