<svg xmlns="http://www.w3.org/2000/svg" viewBox="0 0 640 400" fill="none" stroke="#00F4F7" stroke-width="4" stroke-linecap="round" stroke-linejoin="round">
  <g>
    <ellipse cx="318" cy="212" rx="175" ry="104"/>
    <ellipse cx="318" cy="212" rx="175" ry="58" transform="rotate(-12 318 212)"/>
    <path d="M177 260 222 231 267 202 312 174 357 136 401 103"/>
    <path d="M393 103h31l-18 25"/>
    <path d="M186 259v55h34v-75m15-11v86h34V206m15-12v120h34V175m15-14v153h34V132m15-14v196h34V102"/>
    <path d="M168 314H455"/>
    <circle cx="175" cy="158" r="8"/><circle cx="222" cy="119" r="8"/><circle cx="319" cy="97" r="8"/><circle cx="405" cy="124" r="8"/><circle cx="455" cy="186" r="8"/><circle cx="463" cy="270" r="8"/><circle cx="319" cy="316" r="8"/><circle cx="179" cy="271" r="8"/>
  </g>
</svg>
