<svg xmlns="http://www.w3.org/2000/svg" viewBox="0 0 120 120" fill="none">
  <defs>
    <linearGradient id="n3" x1="16" y1="20" x2="103" y2="101" gradientUnits="userSpaceOnUse"><stop stop-color="#91fbf6"/><stop offset=".48" stop-color="#45d1cf"/><stop offset="1" stop-color="#159b99"/></linearGradient>
    <filter id="g" x="-20%" y="-20%" width="140%" height="140%"><feGaussianBlur stdDeviation=".7" result="b"/><feMerge><feMergeNode in="b"/><feMergeNode in="SourceGraphic"/></feMerge></filter>
  </defs>
  <g stroke="url(#n3)" stroke-width="1.65" stroke-linecap="round" stroke-linejoin="round" filter="url(#g)">
    <path d="M13 86 39 43l16 24 20-38 34 57H13Z"/>
    <path d="m25 86 19-31 12 17 19-31 21 45" opacity=".82"/>
    <path d="m39 43 10 20 8-12 18 23" opacity=".45"/>
    <path d="m87 41 5-5 5 5-5 5zM98 52l4-4 4 4-4 4z"/>
  </g>
  <g stroke="#45d1cf" stroke-width=".8" opacity=".28">
    <path d="M18 92h84M31 92l14-7M55 92l12-8M78 92l10-6"/>
    <path d="M60 13v10M57 18h6M60 98v10M57 103h6"/>
  </g>
</svg>