<svg xmlns="http://www.w3.org/2000/svg" viewBox="0 0 120 120" fill="none">
  <defs>
    <linearGradient id="n3" x1="14" y1="18" x2="106" y2="103" gradientUnits="userSpaceOnUse"><stop stop-color="#91fbf6"/><stop offset=".48" stop-color="#45d1cf"/><stop offset="1" stop-color="#159b99"/></linearGradient>
    <filter id="g" x="-20%" y="-20%" width="140%" height="140%"><feGaussianBlur stdDeviation=".7" result="b"/><feMerge><feMergeNode in="b"/><feMergeNode in="SourceGraphic"/></feMerge></filter>
  </defs>
  <g stroke="url(#n3)" stroke-width="1.65" stroke-linecap="round" stroke-linejoin="round" filter="url(#g)">
    <path d="M23 65c13-20 38-27 57-16 7 4 12 10 16 16-4 7-9 12-16 16-19 11-44 4-57-16Z"/>
    <path d="m23 65-13-13c-2 9 0 19 6 27l7-14Z"/>
    <path d="M54 46c5-9 11-14 20-17 3 7 3 14 0 20M54 84c5 7 11 11 19 13 3-5 4-10 3-15" opacity=".72"/>
    <circle cx="75" cy="60" r="2.5"/>
    <circle cx="92" cy="72" r="17"/>
    <path d="m84 72 6 6 11-13M104 84l10 10"/>
    <path d="M31 65h22" opacity=".45"/>
  </g>
  <g stroke="#45d1cf" stroke-width=".8" opacity=".28">
    <path d="M60 13v9M57 17.5h6M60 101v8M57 105h6"/>
    <path d="M20 37a49 49 0 0 1 70-6M14 44a56 56 0 0 1 84-7"/>
  </g>
</svg>